<svg xmlns="http://www.w3.org/2000/svg" viewBox="0 0 512 512">
  <defs>
    <linearGradient id="bg" x1="0" y1="0" x2="1" y2="1">
      <stop offset="0" stop-color="#3aa56d"/>
      <stop offset="1" stop-color="#1f5a41"/>
    </linearGradient>
  </defs>
  <rect width="512" height="512" rx="96" fill="url(#bg)"/>
  <g fill="#ffffff">
    <path d="M256 96c-48 0-88 40-88 88 0 8 1 16 3 24-24 8-44 30-44 58 0 34 28 62 62 62h134c34 0 62-28 62-62 0-28-20-50-44-58 2-8 3-16 3-24 0-48-40-88-88-88z" opacity="0.15"/>
    <path d="M256 128c-40 0-72 32-72 72 0 36 28 68 72 120 44-52 72-84 72-120 0-40-32-72-72-72zm0 104c-18 0-32-14-32-32s14-32 32-32 32 14 32 32-14 32-32 32z"/>
    <circle cx="168" cy="360" r="22" fill="#7ed6a0"/>
    <circle cx="256" cy="384" r="22" fill="#ffd166"/>
    <circle cx="344" cy="360" r="22" fill="#ef6b6b"/>
  </g>
</svg>
